<svg version="1.1" id="Layer_1" xmlns="http://www.w3.org/2000/svg" xmlns:xlink="http://www.w3.org/1999/xlink" x="0px" y="0px"
	 width="100%" viewBox="0 0 1000 1000" enable-background="new 0 0 1000 1000" xml:space="preserve">
<path fill="#000000" opacity="1.000000" stroke="none" 
	d="
M1001.000000,364.000000 
	C1001.000000,576.666687 1001.000000,788.833313 1001.000000,1001.000000 
	C667.666687,1001.000000 334.333344,1001.000000 1.000000,1001.000000 
	C1.000000,667.666687 1.000000,334.333344 1.000000,1.000000 
	C334.333344,1.000000 667.666687,1.000000 1001.000000,1.000000 
	C1001.000000,121.833336 1001.000000,242.666672 1001.000000,364.000000 
M809.669800,790.031067 
	C815.154907,787.017029 820.695496,784.099182 826.114197,780.970276 
	C840.035767,772.931458 853.959534,764.893677 867.776001,756.676575 
	C880.671875,749.007080 893.316162,740.909973 906.283630,733.366394 
	C918.387329,726.325134 930.661804,719.553467 943.103760,713.133484 
	C946.398682,711.433411 947.052063,709.576477 947.051208,706.321228 
	C946.994385,496.841370 947.000000,287.361511 947.000000,77.881645 
	C947.000000,76.295609 947.000000,74.709564 947.000000,73.305145 
	C652.953369,73.305145 359.568115,73.305145 66.227211,73.305145 
	C66.121178,73.925423 66.019669,74.241913 66.019653,74.558403 
	C66.008598,285.538055 66.010513,496.517670 65.941177,707.497314 
	C65.940147,710.649902 67.321167,712.133850 69.892227,713.480286 
	C76.019066,716.688660 82.041603,720.102722 88.038246,723.551941 
	C105.048561,733.336609 122.014748,743.197998 139.017471,752.995850 
	C155.049210,762.234253 171.122040,771.401367 187.145981,780.653259 
	C203.452637,790.068237 219.704910,799.577454 236.011948,808.991882 
	C252.035995,818.242798 268.167419,827.309692 284.125885,836.671753 
	C300.772461,846.437378 317.209198,856.560547 333.849243,866.337524 
	C347.846771,874.561829 362.034332,882.461914 376.083282,890.599548 
	C392.221283,899.947266 408.258636,909.468994 424.414734,918.784973 
	C440.540497,928.083557 456.883453,937.011475 472.890991,946.506836 
	C482.716736,952.335449 492.221924,958.737549 501.595612,965.276855 
	C504.758270,967.483215 506.616455,967.000122 509.609375,965.065613 
	C521.746094,957.220764 534.016357,949.566162 546.455139,942.209656 
	C558.340698,935.180359 570.562683,928.722351 582.519470,921.810425 
	C607.434692,907.407593 632.241211,892.816833 657.153442,878.408936 
	C673.289246,869.076843 689.578430,860.010315 705.718201,850.685059 
	C730.493042,836.370483 755.205261,821.947510 779.929688,807.545837 
	C789.652832,801.882263 799.337219,796.151978 809.669800,790.031067 
z"/>
<path fill="#FFFFFF" opacity="1.000000" stroke="none" 
	d="
M809.354492,790.241516 
	C799.337219,796.151978 789.652832,801.882263 779.929688,807.545837 
	C755.205261,821.947510 730.493042,836.370483 705.718201,850.685059 
	C689.578430,860.010315 673.289246,869.076843 657.153442,878.408936 
	C632.241211,892.816833 607.434692,907.407593 582.519470,921.810425 
	C570.562683,928.722351 558.340698,935.180359 546.455139,942.209656 
	C534.016357,949.566162 521.746094,957.220764 509.609375,965.065613 
	C506.616455,967.000122 504.758270,967.483215 501.595612,965.276855 
	C492.221924,958.737549 482.716736,952.335449 472.890991,946.506836 
	C456.883453,937.011475 440.540497,928.083557 424.414734,918.784973 
	C408.258636,909.468994 392.221283,899.947266 376.083282,890.599548 
	C362.034332,882.461914 347.846771,874.561829 333.849243,866.337524 
	C317.209198,856.560547 300.772461,846.437378 284.125885,836.671753 
	C268.167419,827.309692 252.035995,818.242798 236.011948,808.991882 
	C219.704910,799.577454 203.452637,790.068237 187.145981,780.653259 
	C171.122040,771.401367 155.049210,762.234253 139.017471,752.995850 
	C122.014748,743.197998 105.048561,733.336609 88.038246,723.551941 
	C82.041603,720.102722 76.019066,716.688660 69.892227,713.480286 
	C67.321167,712.133850 65.940147,710.649902 65.941177,707.497314 
	C66.010513,496.517670 66.008598,285.538055 66.019653,74.558403 
	C66.019669,74.241913 66.121178,73.925423 66.227211,73.305145 
	C359.568115,73.305145 652.953369,73.305145 947.000000,73.305145 
	C947.000000,74.709564 947.000000,76.295609 947.000000,77.881645 
	C947.000000,287.361511 946.994385,496.841370 947.051208,706.321228 
	C947.052063,709.576477 946.398682,711.433411 943.103760,713.133484 
	C930.661804,719.553467 918.387329,726.325134 906.283630,733.366394 
	C893.316162,740.909973 880.671875,749.007080 867.776001,756.676575 
	C853.959534,764.893677 840.035767,772.931458 826.114197,780.970276 
	C820.695496,784.099182 815.154907,787.017029 809.354492,790.241516 
M206.500000,108.000000 
	C171.405121,108.000000 136.310257,108.000000 101.000221,108.000000 
	C101.000221,109.385612 101.000214,110.196907 101.000214,111.008202 
	C101.000160,302.664703 101.010574,494.321167 100.919334,685.977600 
	C100.917633,689.549194 102.443016,691.210815 105.268723,692.774414 
	C117.499184,699.542053 129.694351,706.377808 141.796387,713.372192 
	C164.203369,726.322083 186.499878,739.463257 208.911072,752.405823 
	C227.420853,763.095215 246.077454,773.530579 264.583099,784.227112 
	C289.499908,798.629395 314.311035,813.214355 339.212921,827.642578 
	C353.118866,835.699707 367.139374,843.558899 381.066956,851.578918 
	C395.132782,859.678650 409.134003,867.890381 423.188904,876.009155 
	C435.161743,882.925171 447.187683,889.749207 459.159241,896.667480 
	C473.490723,904.949524 487.814026,913.246399 502.081604,921.637695 
	C504.974854,923.339355 507.366669,923.051086 510.200012,921.408386 
	C523.958740,913.431335 537.862732,905.705078 551.631287,897.744751 
	C576.403503,883.422546 601.094482,868.959900 625.861450,854.628479 
	C639.772522,846.578857 653.807983,838.743958 667.714600,830.686523 
	C683.994202,821.254395 700.151306,811.610352 716.441772,802.197144 
	C732.581848,792.870850 748.861633,783.786621 765.006592,774.468628 
	C781.158813,765.146545 797.179565,755.596497 813.332520,746.275696 
	C829.478821,736.958801 845.760376,727.876282 861.903809,718.554565 
	C878.595154,708.916504 895.191650,699.114319 911.702209,689.458496 
	C911.702209,495.685455 911.702209,301.941467 911.702209,108.000000 
	C676.769653,108.000000 442.134827,108.000000 206.500000,108.000000 
z"/>
<path fill="#000000" opacity="1.000000" stroke="none" 
	d="
M207.000000,108.000000 
	C442.134827,108.000000 676.769653,108.000000 911.702209,108.000000 
	C911.702209,301.941467 911.702209,495.685455 911.702209,689.458496 
	C895.191650,699.114319 878.595154,708.916504 861.903809,718.554565 
	C845.760376,727.876282 829.478821,736.958801 813.332520,746.275696 
	C797.179565,755.596497 781.158813,765.146545 765.006592,774.468628 
	C748.861633,783.786621 732.581848,792.870850 716.441772,802.197144 
	C700.151306,811.610352 683.994202,821.254395 667.714600,830.686523 
	C653.807983,838.743958 639.772522,846.578857 625.861450,854.628479 
	C601.094482,868.959900 576.403503,883.422546 551.631287,897.744751 
	C537.862732,905.705078 523.958740,913.431335 510.200012,921.408386 
	C507.366669,923.051086 504.974854,923.339355 502.081604,921.637695 
	C487.814026,913.246399 473.490723,904.949524 459.159241,896.667480 
	C447.187683,889.749207 435.161743,882.925171 423.188904,876.009155 
	C409.134003,867.890381 395.132782,859.678650 381.066956,851.578918 
	C367.139374,843.558899 353.118866,835.699707 339.212921,827.642578 
	C314.311035,813.214355 289.499908,798.629395 264.583099,784.227112 
	C246.077454,773.530579 227.420853,763.095215 208.911072,752.405823 
	C186.499878,739.463257 164.203369,726.322083 141.796387,713.372192 
	C129.694351,706.377808 117.499184,699.542053 105.268723,692.774414 
	C102.443016,691.210815 100.917633,689.549194 100.919334,685.977600 
	C101.010574,494.321167 101.000160,302.664703 101.000214,111.008202 
	C101.000214,110.196907 101.000221,109.385612 101.000221,108.000000 
	C136.310257,108.000000 171.405121,108.000000 207.000000,108.000000 
M748.064331,251.538391 
	C742.470215,238.015503 731.071899,232.719101 717.709167,231.117096 
	C703.901550,229.461731 691.126038,233.870575 678.788635,239.655899 
	C652.893982,251.798492 630.181824,268.687103 609.082825,287.669556 
	C597.635437,297.968536 587.079468,309.344818 576.827454,320.863525 
	C564.456299,334.763184 552.133972,348.809937 541.060181,363.735077 
	C526.507202,383.349335 513.192139,403.882141 500.031860,423.020782 
	C489.990051,407.984039 479.564880,391.107666 467.850128,375.179779 
	C455.615784,358.545288 442.195374,342.778992 429.175171,326.729126 
	C424.944977,321.514557 420.469299,316.483337 415.881317,311.578369 
	C408.191101,303.356842 400.723480,294.859650 392.403473,287.315186 
	C385.263092,280.840424 376.803986,275.844513 369.381531,269.651123 
	C352.987396,255.971588 334.956512,245.090042 315.340302,236.776733 
	C303.296631,231.672653 290.857025,229.027557 277.833008,232.054703 
	C270.246429,233.818024 263.085724,236.818146 258.029724,243.094650 
	C249.711578,253.420715 247.212982,265.960754 247.236816,278.565918 
	C247.267853,294.988342 248.846802,311.418579 250.041412,327.824921 
	C251.171112,343.339935 252.562012,358.838196 254.031723,374.325439 
	C255.203018,386.668121 256.468994,399.008331 258.043274,411.304779 
	C260.747101,432.424255 271.026245,449.890930 286.072906,464.289246 
	C296.964874,474.711975 310.233002,482.122223 324.592499,486.862000 
	C334.638031,490.177795 345.108887,492.204926 354.894104,494.682129 
	C351.723511,495.686005 348.017487,496.721710 344.408142,498.025238 
	C325.585419,504.823334 306.388062,511.300720 295.629700,530.086365 
	C292.521301,535.514038 290.015106,541.796936 289.230957,547.942688 
	C287.418732,562.146851 290.991943,575.487793 297.591492,588.280273 
	C310.415955,613.139160 327.037933,634.910889 347.946716,653.499390 
	C359.890625,664.117859 372.471802,673.555298 387.615051,679.265137 
	C398.159760,683.241150 408.949158,685.639465 419.889740,682.460327 
	C434.390167,678.246765 447.327087,671.250183 455.706696,657.822693 
	C462.694702,646.625183 470.935974,636.049927 476.606750,624.231934 
	C483.218781,610.452332 487.729645,595.653992 492.973969,581.232971 
	C495.599335,574.013550 497.828552,566.650146 500.425385,558.780823 
	C502.095825,564.466003 503.502472,569.397339 504.993408,574.303040 
	C511.553955,595.889832 516.819763,617.923401 527.947937,637.889221 
	C535.905640,652.166748 544.448547,665.814331 559.081909,674.369141 
	C570.711975,681.168213 583.153137,683.082520 596.207581,680.292053 
	C607.610168,677.854736 618.070557,673.275146 628.210999,667.233459 
	C641.508850,659.310608 653.995544,650.408447 665.250977,639.962219 
	C672.412170,633.315918 678.527832,625.464050 684.622925,617.765259 
	C695.632751,603.858582 703.674072,588.511902 707.136719,570.832825 
	C710.105713,555.673767 706.529541,542.087708 698.110718,529.786072 
	C688.438965,515.653564 673.740784,507.901520 658.609314,501.051819 
	C653.289307,498.643555 647.730347,496.762939 642.905640,494.884766 
	C647.270264,493.706177 651.947998,491.262970 656.516052,491.453064 
	C666.287964,491.859650 674.580383,487.643036 682.994324,484.213806 
	C690.815674,481.026062 698.296936,476.643127 705.284058,471.848114 
	C717.791199,463.264771 727.381470,451.927704 734.304138,438.326324 
	C739.196716,428.713409 742.124268,418.687592 743.127075,407.906647 
	C744.393555,394.289795 746.522400,380.755157 747.938965,367.149628 
	C748.924683,357.681244 749.280151,348.148773 750.019409,338.652863 
	C751.304688,322.143127 753.112183,305.659515 753.855469,289.126923 
	C754.419617,276.579407 752.986145,264.072296 748.064331,251.538391 
z"/>
<path fill="#FFFFFF" opacity="1.000000" stroke="none" 
	d="
M748.345093,251.819672 
	C752.986145,264.072296 754.419617,276.579407 753.855469,289.126923 
	C753.112183,305.659515 751.304688,322.143127 750.019409,338.652863 
	C749.280151,348.148773 748.924683,357.681244 747.938965,367.149628 
	C746.522400,380.755157 744.393555,394.289795 743.127075,407.906647 
	C742.124268,418.687592 739.196716,428.713409 734.304138,438.326324 
	C727.381470,451.927704 717.791199,463.264771 705.284058,471.848114 
	C698.296936,476.643127 690.815674,481.026062 682.994324,484.213806 
	C674.580383,487.643036 666.287964,491.859650 656.516052,491.453064 
	C651.947998,491.262970 647.270264,493.706177 642.905640,494.884766 
	C647.730347,496.762939 653.289307,498.643555 658.609314,501.051819 
	C673.740784,507.901520 688.438965,515.653564 698.110718,529.786072 
	C706.529541,542.087708 710.105713,555.673767 707.136719,570.832825 
	C703.674072,588.511902 695.632751,603.858582 684.622925,617.765259 
	C678.527832,625.464050 672.412170,633.315918 665.250977,639.962219 
	C653.995544,650.408447 641.508850,659.310608 628.210999,667.233459 
	C618.070557,673.275146 607.610168,677.854736 596.207581,680.292053 
	C583.153137,683.082520 570.711975,681.168213 559.081909,674.369141 
	C544.448547,665.814331 535.905640,652.166748 527.947937,637.889221 
	C516.819763,617.923401 511.553955,595.889832 504.993408,574.303040 
	C503.502472,569.397339 502.095825,564.466003 500.425385,558.780823 
	C497.828552,566.650146 495.599335,574.013550 492.973969,581.232971 
	C487.729645,595.653992 483.218781,610.452332 476.606750,624.231934 
	C470.935974,636.049927 462.694702,646.625183 455.706696,657.822693 
	C447.327087,671.250183 434.390167,678.246765 419.889740,682.460327 
	C408.949158,685.639465 398.159760,683.241150 387.615051,679.265137 
	C372.471802,673.555298 359.890625,664.117859 347.946716,653.499390 
	C327.037933,634.910889 310.415955,613.139160 297.591492,588.280273 
	C290.991943,575.487793 287.418732,562.146851 289.230957,547.942688 
	C290.015106,541.796936 292.521301,535.514038 295.629700,530.086365 
	C306.388062,511.300720 325.585419,504.823334 344.408142,498.025238 
	C348.017487,496.721710 351.723511,495.686005 354.894104,494.682129 
	C345.108887,492.204926 334.638031,490.177795 324.592499,486.862000 
	C310.233002,482.122223 296.964874,474.711975 286.072906,464.289246 
	C271.026245,449.890930 260.747101,432.424255 258.043274,411.304779 
	C256.468994,399.008331 255.203018,386.668121 254.031723,374.325439 
	C252.562012,358.838196 251.171112,343.339935 250.041412,327.824921 
	C248.846802,311.418579 247.267853,294.988342 247.236816,278.565918 
	C247.212982,265.960754 249.711578,253.420715 258.029724,243.094650 
	C263.085724,236.818146 270.246429,233.818024 277.833008,232.054703 
	C290.857025,229.027557 303.296631,231.672653 315.340302,236.776733 
	C334.956512,245.090042 352.987396,255.971588 369.381531,269.651123 
	C376.803986,275.844513 385.263092,280.840424 392.403473,287.315186 
	C400.723480,294.859650 408.191101,303.356842 415.881317,311.578369 
	C420.469299,316.483337 424.944977,321.514557 429.175171,326.729126 
	C442.195374,342.778992 455.615784,358.545288 467.850128,375.179779 
	C479.564880,391.107666 489.990051,407.984039 500.031860,423.020782 
	C513.192139,403.882141 526.507202,383.349335 541.060181,363.735077 
	C552.133972,348.809937 564.456299,334.763184 576.827454,320.863525 
	C587.079468,309.344818 597.635437,297.968536 609.082825,287.669556 
	C630.181824,268.687103 652.893982,251.798492 678.788635,239.655899 
	C691.126038,233.870575 703.901550,229.461731 717.709167,231.117096 
	C731.071899,232.719101 742.470215,238.015503 748.345093,251.819672 
z"/>
</svg>